<svg xmlns="http://www.w3.org/2000/svg">
  <symbol id="arrow" viewBox="0 0 24 24">
    <polygon points="12 14.29 4.78 7.07 3.36 8.48 12 17.12 20.64 8.48 19.22 7.07 12 14.29"></polygon>
  </symbol>

  <symbol id="arrowDown" viewBox="0 0 16 9">
    <path fill-rule="evenodd" clip-rule="evenodd" d="M15.0709 1.84309L8.70692 8.20705C8.31639 8.59758 7.68323 8.59758 7.2927 8.20705L0.928741 1.84309C0.538216 1.45257 0.538216 0.819404 0.928741 0.42888C1.31926 0.0383552 1.95243 0.0383552 2.34295 0.42888L7.99981 6.08573L13.6567 0.42888C14.0472 0.0383552 14.6804 0.0383552 15.0709 0.42888C15.4614 0.819404 15.4614 1.45257 15.0709 1.84309Z"/>
  </symbol>

  <symbol id="avatar" viewBox="0 0 40 40">
    <path d="M15.25,17.93a8.53,8.53,0,1,1,9.63,0c.14.06.26.12.38.16a14.48,14.48,0,0,1,9.87,11.12,16.67,16.67,0,0,1,.29,3c0,1.37,0,2.75,0,4.12a3.59,3.59,0,0,1,0,.47,1.08,1.08,0,0,1-1.06,1H5.86a1.07,1.07,0,0,1-1.14-1.13c0-1.9-.12-3.82,0-5.72A14.36,14.36,0,0,1,12.09,19.3a12.72,12.72,0,0,1,2.85-1.25ZM20,35.51H32.91c.22,0,.3-.1.3-.31,0-.46,0-.92,0-1.38A21,21,0,0,0,33,30.1,12.26,12.26,0,0,0,24.09,20a14.78,14.78,0,0,0-4.87-.46,12.27,12.27,0,0,0-8.59,3.59A11.92,11.92,0,0,0,7,31c-.09,1.3-.06,2.61-.07,3.92,0,.58,0,.58.6.58Zm0-30.92A6.27,6.27,0,1,0,26.32,11,6.26,6.26,0,0,0,20.08,4.59Z"></path>
  </symbol>

  <symbol id="burger" viewBox="0 0 36 22">
    <rect width="36" height="2"></rect>
    <rect y="20" width="36" height="2"></rect>
    <rect y="10" width="36" height="2"></rect>
  </symbol>

   <symbol id="camera" viewBox="0 0 40 40">
    <path d="M35.42,10.31a2.07,2.07,0,0,0-2-1.31H30.47c-.58,0-1.16,0-1.73,0a.37.37,0,0,1-.42-.29c-.29-.79-.59-1.58-.9-2.36a.63.63,0,0,0-.73-.5H13.32c-.45,0-.58.09-.75.52l-.91,2.38c-.07.2-.17.3-.42.2V7c0-.16,0-.33,0-.49a.59.59,0,0,0-.63-.63c-1.06,0-2.13,0-3.19,0-.42,0-.64.23-.65.68,0,.7,0,1.4,0,2.1V9L6.35,9a2,2,0,0,0-1.91,2.06c0,2.27,0,4.54,0,6.82V32A2,2,0,0,0,6.06,34.1a2.41,2.41,0,0,0,.54,0H33.4a2,2,0,0,0,2.11-1.6,1.17,1.17,0,0,1,.05-.11V10.74A3.59,3.59,0,0,0,35.42,10.31ZM13.57,7.2c0-.06.11-.1.18-.12a.74.74,0,0,1,.21,0H26.05a.41.41,0,0,1,.47.33c.18.52.4,1,.61,1.58H12.87C13.11,8.36,13.33,7.78,13.57,7.2ZM8,7.1h2V9H8ZM34.35,32a.84.84,0,0,1-.94.93H6.6A.84.84,0,0,1,5.65,32V28.64c0-.08,0-.16,0-.27H7.92a.61.61,0,0,0,.65-.65V15.65c0-.68-.19-.87-.87-.87h-2c0-.1,0-.19,0-.28V11.18a.86.86,0,0,1,.93-1h26.6a3.39,3.39,0,0,1,.45,0,.79.79,0,0,1,.71.76c0,1.24,0,2.49,0,3.77H32.18c-.52,0-.74.23-.74.74q0,6.06,0,12.13c0,.48.22.71.7.71h2.19c0,.11,0,.19,0,.27ZM5.67,27.13V16H7.33V27.13ZM34.33,16V27.13H32.67V16Z"></path>
    <path d="M20,12.69a8.89,8.89,0,1,0,8.76,8.89A8.83,8.83,0,0,0,20,12.69Zm0,16.56a7.67,7.67,0,1,1,7.57-7.64A7.63,7.63,0,0,1,20,29.25Z"></path>
    <path d="M12.24,12.75a.59.59,0,0,0-.65-.61H9a.62.62,0,0,0-.65.58.61.61,0,0,0,.64.63h2.64A.59.59,0,0,0,12.24,12.75Z"></path>
    <path d="M31.67,12.74a.62.62,0,0,0-.66-.6H28.42a.61.61,0,1,0,0,1.21H31A.61.61,0,0,0,31.67,12.74Z"></path>
    <path d="M24.27,19.87a1.07,1.07,0,0,1-1.15-1.72.62.62,0,0,0-.16-1,5.15,5.15,0,0,0-3-.93,5.36,5.36,0,1,0,5.16,4.17A.62.62,0,0,0,24.27,19.87Zm-2.55,5.46a4,4,0,0,1-4.95-1.24,4.19,4.19,0,0,1,.23-5.3,4,4,0,0,1,4.83-.89A2.35,2.35,0,0,0,24,21.18,4.08,4.08,0,0,1,21.72,25.33Z"></path>
  </symbol>

  <symbol id="cart" viewBox="0 0 40 40">
    <path d="M36.85,9.36a6.74,6.74,0,0,0-1.42-.1H10.27c-.28,0-.41-.08-.46-.37C9.64,7.91,9.43,7,9.24,6A2.82,2.82,0,0,0,6.29,3.53c-1.41,0-2.82,0-4.23,0h-.2A1.3,1.3,0,0,0,.5,4.74,1.29,1.29,0,0,0,1.86,6H6c.83,0,.83,0,1,.81q1.93,10.31,3.85,20.62a3.46,3.46,0,0,0,3.47,2.95q9.31,0,18.63,0a3.41,3.41,0,0,0,3.39-2.74c1-4.67,2.1-9.34,3.12-14A3.42,3.42,0,0,0,36.85,9.36ZM37,13.27Q35.52,20.13,34,27a1,1,0,0,1-1.17.95H14.34a1,1,0,0,1-1.16-.9c-.91-5.08-1.82-10.16-2.75-15.33H11l24.73,0C36.87,11.7,37.27,12.19,37,13.27Z"></path>
    <path d="M31.39,31.71a2.39,2.39,0,1,0,2.38,2.38A2.38,2.38,0,0,0,31.39,31.71Z"></path>
    <circle cx="16.69" cy="34.09" r="2.39"></circle>
  </symbol>

  <symbol id="chat" viewBox="0 0 100 100">
    <path d="M67.56,28.59H32.44A4.41,4.41,0,0,0,28,33V61.1a4.41,4.41,0,0,0,4.4,4.41h7.09a3.45,3.45,0,0,1,2.19.78l4.62,3.77A5.78,5.78,0,0,0,50,71.34a5.72,5.72,0,0,0,3.59-1.26l4.74-3.81a3.47,3.47,0,0,1,2.17-.76h7.1A4.41,4.41,0,0,0,72,61.1V33A4.41,4.41,0,0,0,67.56,28.59Zm1.5,32.51a1.51,1.51,0,0,1-1.5,1.51h-7.1a6.44,6.44,0,0,0-4,1.4l-4.73,3.81a2.85,2.85,0,0,1-3.56,0L43.55,64a6.39,6.39,0,0,0-4-1.43H32.44a1.51,1.51,0,0,1-1.5-1.51V33a1.51,1.51,0,0,1,1.5-1.51H67.56A1.51,1.51,0,0,1,69.06,33Z"></path>
    <circle cx="50" cy="46.33" r="2.24"></circle>
    <path d="M39.26,44.08a2.25,2.25,0,1,0,2.25,2.25A2.24,2.24,0,0,0,39.26,44.08Z"></path>
    <path d="M60.74,44.08A2.25,2.25,0,1,0,63,46.33,2.25,2.25,0,0,0,60.74,44.08Z"></path>
  </symbol>

  <symbol id="close" viewBox="0 0 28 28">
    <polygon points="27.68 1.41 26.26 0 13.84 12.42 1.41 0 0 1.41 12.42 13.84 0 26.26 1.41 27.68 13.84 15.25 26.26 27.68 27.68 26.26 15.25 13.84 27.68 1.41"></polygon>
  </symbol>

  <symbol id="compare" viewBox="0 0 40 40">
    <path d="M3.73,12.11H33.67l-.09.12L32,13.78l-1.27,1.29-1.55,1.55-.71.72a1,1,0,0,0-.32.92,1,1,0,0,0,.72.86A1,1,0,0,0,30,18.85l1-1.06,1.41-1.43c.52-.51,1-1,1.54-1.54l1.3-1.31,1.11-1.12c.21-.21.43-.43.63-.65a1,1,0,0,0,0-1.44c-.17-.17-.36-.34-.53-.52s-.36-.37-.54-.55l-.82-.8-.6-.62L33.72,7l-.62-.64-.8-.78L31.68,5c-.31-.31-.63-.61-.93-.92s-.54-.55-.81-.82a1,1,0,0,0-.5-.28.33.33,0,0,1-.13,0h-.26l-.07,0a1,1,0,0,0-.79.66,1,1,0,0,0,.2,1.09c.14.17.3.33.45.48l.81.79.65.67.77.75.59.61.77.75L33.6,9.92l.06.07H3.72a1,1,0,0,0-1,.84,1.16,1.16,0,0,0,0,.18v.11l0,.15A1,1,0,0,0,3.73,12.11Z"></path>
    <path d="M36.22,27.87H6.31a.81.81,0,0,1,.08-.12l.41-.39,1.08-1.1c.11-.12.24-.23.36-.35l1.22-1.25.2-.18c.42-.42.83-.85,1.24-1.27l.58-.56a1.15,1.15,0,0,0,.32-.59,1.07,1.07,0,0,0-1.78-1l-.59.57c-.18.19-.36.39-.55.58L8,23.06l-.75.78-.69.68L6,25.16l-.75.74c-.3.3-.59.61-.88.91l-.58.56c-.28.28-.55.57-.83.86a.94.94,0,0,0-.25.47l0,.19V29s0,0,0,0a1.06,1.06,0,0,0,.34.7L4.1,30.81l1.43,1.43L7,33.67l1.37,1.38,1.28,1.26c.15.14.28.3.43.44a1,1,0,0,0,1,.29,1,1,0,0,0,.74-.66,1,1,0,0,0-.24-1.12l-.71-.71L9.4,33.09,8,31.7c-.31-.32-.63-.63-1-.95L7,30.68l-.3-.29c-.12-.13-.24-.26-.38-.39H36.26a1.07,1.07,0,0,0,1-1.51A1,1,0,0,0,36.22,27.87Z"></path>
  </symbol>

  <symbol id="delete" viewBox="0 0 40 40">
    <path d="M32.88,10.81a1.07,1.07,0,0,0-1-.51H26.78c0-.14-.08-.24-.11-.35-.17-.59-.33-1.19-.52-1.77a3.54,3.54,0,0,0-3.28-2.51c-1.85,0-3.71,0-5.56,0a3.42,3.42,0,0,0-.9.12,3.63,3.63,0,0,0-2.6,2.54c-.2.66-.38,1.32-.58,2H8.06A1,1,0,0,0,7,11.14a1,1,0,0,0,.91,1.19c.36,0,.72,0,1.11,0a1.29,1.29,0,0,1,0,.19l.24,3.9q.23,3.6.44,7.2c.15,2.43.29,4.86.44,7.3a3.56,3.56,0,0,0,1.24,2.5,3.85,3.85,0,0,0,2.68.94H25.93a3.71,3.71,0,0,0,3.52-2,4.74,4.74,0,0,0,.44-2.06q.12-2.33.27-4.65.19-3.31.41-6.64l.33-5.7c0-.3.05-.6.08-.92l.38,0a6.69,6.69,0,0,0,.78,0A1,1,0,0,0,32.88,10.81Zm-17-2.2a1.48,1.48,0,0,1,1.44-.92q2.68,0,5.37,0a1.48,1.48,0,0,1,1.45,1,14.82,14.82,0,0,1,.51,1.63h-9.3A15.37,15.37,0,0,1,15.88,8.61Zm12.91,6.06c-.08,1.22-.15,2.45-.23,3.68-.1,1.58-.19,3.15-.29,4.73l-.21,3.53c-.08,1.4-.16,2.8-.26,4.21a1.62,1.62,0,0,1-1.57,1.49h-.82c-3.8,0-7.6,0-11.41,0a1.76,1.76,0,0,1-1.82-1.75c-.07-1.88-.23-3.76-.34-5.64l-.21-3.56c-.09-1.55-.19-3.11-.29-4.67-.07-1.16-.14-2.31-.2-3.46,0-.27,0-.54-.05-.84H28.92C28.87,13.17,28.83,13.92,28.79,14.67Z"></path>
    <path d="M24.89,27.63a1.05,1.05,0,0,0,.81-1c.12-1.23.25-2.46.37-3.69.18-1.83.37-3.66.54-5.5a1.22,1.22,0,0,0-.13-.62,1,1,0,0,0-1.05-.51,1,1,0,0,0-.81.8c-.09.54-.13,1.08-.18,1.61-.12,1.14-.23,2.28-.34,3.42-.14,1.42-.29,2.83-.43,4.25h0a3.51,3.51,0,0,0,.14.66A1,1,0,0,0,24.89,27.63Z"></path>
    <path d="M14.32,26.7a1.29,1.29,0,0,0,.27.61.94.94,0,0,0,1.13.27c.44-.18.65-.56.6-1.26s-.17-1.82-.27-2.8c-.14-1.37-.28-2.73-.41-4.1-.08-.74-.14-1.49-.24-2.23a1,1,0,0,0-1.19-.83,1,1,0,0,0-.82,1.15c.16,1.53.32,3.06.47,4.59S14.15,25.17,14.32,26.7Z"></path>
    <path d="M20.26,27.64a1,1,0,0,0,.76-1V21c0-1.21,0-2.43,0-3.65a1,1,0,0,0-1.35-1,1,1,0,0,0-.67,1v9.18a1.21,1.21,0,0,0,0,.19A1,1,0,0,0,20.26,27.64Z"></path>
  </symbol>

  <symbol id="dollar" viewBox="0 0 36 36">
    <path d="M16.64,9.79l-.39.12a6.07,6.07,0,0,0-2.07.9,4.29,4.29,0,0,0-1.91,4.07,3.78,3.78,0,0,0,1.1,2.36,6.86,6.86,0,0,0,1.78,1.22,22.86,22.86,0,0,0,2.25.89,6.54,6.54,0,0,1,1.56.79,1.76,1.76,0,0,1,.76,1.21,1.46,1.46,0,0,1-1,1.52,4.23,4.23,0,0,1-2,.25A11.88,11.88,0,0,1,15,22.86c-.36-.1-.72-.21-1.07-.34a1.09,1.09,0,0,0-1.4.8c-.07.26-.12.53-.2.78a1.1,1.1,0,0,0,.72,1.34,11.89,11.89,0,0,0,2.69.6c.26,0,.51.06.79.1,0,.14,0,.27,0,.39V28c0,.4.19.58.58.58h1.3c.39,0,.56-.18.57-.58V26.35c0-.12,0-.25,0-.39l.28-.08a6.49,6.49,0,0,0,2.46-1.05,4.54,4.54,0,0,0,1.77-2.58,6.23,6.23,0,0,0,.1-1.67,3.59,3.59,0,0,0-.51-1.69,4.76,4.76,0,0,0-2-1.83c-1-.54-2.06-.89-3.1-1.33A5.3,5.3,0,0,1,16.69,15a1.25,1.25,0,0,1,.08-2.06,2.7,2.7,0,0,1,1.43-.41,7.7,7.7,0,0,1,2.19.23c.27.07.54.16.81.22a1,1,0,0,0,1.27-.7c.09-.25.15-.52.22-.78a1.09,1.09,0,0,0-.77-1.37,8,8,0,0,0-2.12-.4c-.21,0-.41-.06-.64-.09,0-.14,0-.26,0-.37,0-.41,0-.82,0-1.23a.61.61,0,0,0-.69-.69H17.29a.59.59,0,0,0-.63.54,2.46,2.46,0,0,0,0,.28V9.79Z"></path>
  </symbol>

  <symbol id="edit" viewBox="0 0 30 30">
    <path d="M27.49.94A5.17,5.17,0,0,0,26.22.5h-1a.09.09,0,0,1-.05,0,3.92,3.92,0,0,0-2.32,1.33q-6.3,6.91-12.61,13.81a2,2,0,0,0-.41.7L8.52,20.44a3.25,3.25,0,0,0-.18.68,1.72,1.72,0,0,0,1.05,1.79,1.8,1.8,0,0,0,1.47-.05L15,21.06a2.21,2.21,0,0,0,.75-.54q4.63-5.1,9.29-10.18c1.17-1.28,2.36-2.54,3.5-3.85A3.62,3.62,0,0,0,27.49.94Zm-16.09,19,0-.05.89-2.67L14,18.75ZM26.63,4.83c-.38.46-.79.88-1.19,1.32L15.91,16.59l-.27.28L14,15.35,15.19,14l9.58-10.5c.07-.07.13-.14.2-.2a1.12,1.12,0,0,1,1.66,1.51Z"></path>
    <path d="M25.81,12a1.25,1.25,0,0,0-1.32,1,2.8,2.8,0,0,0,0,.5v10c0,.15,0,.3,0,.45a3.14,3.14,0,0,1-.79,2A3.17,3.17,0,0,1,21.17,27H6.05a3.07,3.07,0,0,1-2-.85,3.19,3.19,0,0,1-1-2.45q0-7.08,0-14.16c0-.22,0-.43,0-.65A3.13,3.13,0,0,1,4.38,6.27a3.33,3.33,0,0,1,2.05-.6H17.26a1.25,1.25,0,0,0,.11-2.46,2.74,2.74,0,0,0-.5,0h-10c-.37,0-.75,0-1.13,0A5.5,5.5,0,0,0,1.78,5.33,5.61,5.61,0,0,0,.55,9V23.67c0,.15,0,.29,0,.43A5.69,5.69,0,0,0,6.3,29.45H18.74c.94,0,1.88,0,2.82,0a5.36,5.36,0,0,0,3-1.05A5.61,5.61,0,0,0,27,23.69c0-3.44,0-6.88,0-10.32v-.22A1.27,1.27,0,0,0,25.81,12Z"></path>
  </symbol>

  <symbol id="exit" viewBox="0 0 40 40">
    <path d="M39.42,2.8A3.31,3.31,0,0,0,36.32.51Q27.14.5,18,.51a4.58,4.58,0,0,0-.83.08,4.45,4.45,0,0,0-3.59,4c-.06.91,0,1.83,0,2.74a1.65,1.65,0,0,0,.05.38A1.25,1.25,0,0,0,16,7.35c0-.8,0-1.6,0-2.4a1.86,1.86,0,0,1,1.17-1.77,2.82,2.82,0,0,1,1-.19c3.13,0,6.27,0,9.41,0h.51a.45.45,0,0,1-.21.12l-2.31.77a3.27,3.27,0,0,0-2.28,2.48,5.41,5.41,0,0,0-.08,1.06q0,12.12,0,24.24c0,.18,0,.36,0,.57h-.39c-1.55,0-3.1,0-4.65,0A2.06,2.06,0,0,1,16,30c0-.75,0-1.5,0-2.25a1.24,1.24,0,0,0-.89-1.2,1.21,1.21,0,0,0-1.35.44,1.4,1.4,0,0,0-.26.9c0,.73,0,1.47,0,2.21a4.57,4.57,0,0,0,.07.83A4.52,4.52,0,0,0,18,34.7c1.58,0,3.17,0,4.76,0h.44c0,.17,0,.29,0,.41,0,.35,0,.69,0,1A3.21,3.21,0,0,0,24.7,39a3.41,3.41,0,0,0,1.82.62c1.21,0,7.27-2.27,10.6-3.37a3.44,3.44,0,0,0,2.43-2.63V3.19C39.51,3.06,39.47,2.93,39.42,2.8Zm-2.32,30c0,.66-.17.89-.78,1.1L30.11,36c-1,.34-2,.69-3.07,1a1.37,1.37,0,0,1-.52.1.78.78,0,0,1-.75-.84c0-1.19,0-2.38,0-3.58V7.31c0-.74.12-.9.82-1.13l9.09-3L36,3a.81.81,0,0,1,1.06.76,2.44,2.44,0,0,1,0,.27V32.79Z"></path>
    <path d="M18,16.63,12.2,10.84c-.11-.1-.21-.22-.33-.31a1.19,1.19,0,0,0-1.36-.12,1.16,1.16,0,0,0-.65,1.16,1.36,1.36,0,0,0,.47.93L13.86,16l.31.34H1.7A1.24,1.24,0,0,0,1,18.56a1.38,1.38,0,0,0,.92.28c3.93,0,7.85,0,11.78,0h.51c-.15.16-.24.26-.34.35l-3.44,3.45a2.37,2.37,0,0,0-.33.38A1.19,1.19,0,0,0,10,24.28a1.16,1.16,0,0,0,1.09.65,1.37,1.37,0,0,0,1-.49L18,18.57A1.24,1.24,0,0,0,18,16.63Z"></path>
  </symbol>

  <symbol id="facebook" viewBox="0 0 36 36">
    <path d="M19.5,23.78V18.91c0-.32,0-.32.33-.32q1.16,0,2.31,0c.23,0,.29-.07.31-.29.09-1,.2-2,.31-3,0-.32,0-.32-.29-.32H19.84c-.34,0-.34,0-.34-.33V12.82c0-.76.32-1.08,1.09-1.09h1.75c.39,0,.4,0,.4-.41V8.59c0-.39,0-.39-.38-.39-.89,0-1.78,0-2.67,0a7.24,7.24,0,0,0-1.46.15,3.76,3.76,0,0,0-3,3.58c-.08.9-.05,1.82-.06,2.73,0,.23-.08.3-.3.3H13.38c-.17,0-.25,0-.25.23,0,1.07,0,2.13,0,3.19,0,.2.09.23.25.23.47,0,.94,0,1.41,0s.4,0,.4.39v9.61c0,.4,0,.4.41.4h3.54c.36,0,.36,0,.36-.37Z"></path>
  </symbol>

  <symbol id="filter" viewBox="0 0 42 42">
    <path d="M41.72,36.31a1.1,1.1,0,0,0-.31-.22A1,1,0,0,0,41,36H19.37a4,4,0,0,0-7.74,0H1a1,1,0,0,0-.41.09,1.1,1.1,0,0,0-.31.22,1.06,1.06,0,0,0-.21.31A1.3,1.3,0,0,0,0,37a1.24,1.24,0,0,0,0,.33,1.23,1.23,0,0,0,.12.26,1,1,0,0,0,.5.4A1,1,0,0,0,1,38H11.63a4,4,0,0,0,7.74,0H41a1,1,0,0,0,.34-.06,1.07,1.07,0,0,0,.49-.4,1.23,1.23,0,0,0,.12-.26A1.24,1.24,0,0,0,42,37a1.3,1.3,0,0,0-.07-.33A1.06,1.06,0,0,0,41.72,36.31ZM15.5,39a2,2,0,1,1,2-2A2,2,0,0,1,15.5,39Z"></path>
    <path d="M41.72,20.31a1.1,1.1,0,0,0-.31-.22A1,1,0,0,0,41,20H35.37a4,4,0,0,0-7.74,0H1a1,1,0,0,0-.34.06.94.94,0,0,0-.5.4,1.23,1.23,0,0,0-.12.26A1.22,1.22,0,0,0,0,21a1.28,1.28,0,0,0,.07.34,1.06,1.06,0,0,0,.21.31,1.1,1.1,0,0,0,.31.22A1,1,0,0,0,1,22H27.63a4,4,0,0,0,7.74,0H41a1,1,0,0,0,.34-.06,1.07,1.07,0,0,0,.49-.4A1,1,0,0,0,42,21a1.28,1.28,0,0,0-.07-.34A1.06,1.06,0,0,0,41.72,20.31ZM31.5,23a2,2,0,1,1,2-2A2,2,0,0,1,31.5,23Z"></path>
    <path d="M.16,5.54a1,1,0,0,0,.5.4A1,1,0,0,0,1,6H5.13a4,4,0,0,0,7.74,0H41a1,1,0,0,0,.34-.06,1.07,1.07,0,0,0,.49-.4A1.23,1.23,0,0,0,42,5.28,1.24,1.24,0,0,0,42,5a1.3,1.3,0,0,0-.07-.33,1.06,1.06,0,0,0-.21-.31,1.1,1.1,0,0,0-.31-.22A1,1,0,0,0,41,4H12.87A4,4,0,0,0,5.13,4H1a1,1,0,0,0-.41.09,1.1,1.1,0,0,0-.31.22,1.06,1.06,0,0,0-.21.31A1.3,1.3,0,0,0,0,5a1.24,1.24,0,0,0,0,.33A1.23,1.23,0,0,0,.16,5.54ZM9,3A2,2,0,1,1,7,5,2,2,0,0,1,9,3Z"></path>
  </symbol>

  <symbol id="google" viewBox="0 0 34 34">
    <path d="M22.11,18.88a1.18,1.18,0,0,1,0,.22,3.85,3.85,0,0,1-1.08,2,5.22,5.22,0,0,1-4.82,1.39,5.6,5.6,0,0,1-2.25-10,5.27,5.27,0,0,1,6.54.12l.15.1,2.5-2.5a3,3,0,0,0-.24-.21,8.7,8.7,0,0,0-7.56-1.89A9,9,0,0,0,8.16,18.27a8.82,8.82,0,0,0,3.68,6.13,9,9,0,0,0,7.4,1.49,7.8,7.8,0,0,0,6.06-5.26,10.27,10.27,0,0,0,.47-4.83c-.05-.41-.08-.44-.5-.44H17.65c-.47,0-.47,0-.47.48v2.59c0,.08,0,.15,0,.23a.17.17,0,0,0,.18.19h4.34Z"></path>
  </symbol>

  <symbol id="hryvnya" viewBox="0 0 36 36">
    <path d="M22.88,14.52l.16-.46a4.69,4.69,0,0,0,.26-2.82,4.88,4.88,0,0,0-6.75-3.49A4.71,4.71,0,0,0,14.82,9a1.09,1.09,0,0,0-.14,1.26,1.06,1.06,0,0,0,1,.61,1.25,1.25,0,0,0,.92-.43A2.48,2.48,0,0,1,18.9,9.7a2.45,2.45,0,0,1,2,1.66,2.45,2.45,0,0,1-.49,2.58,1.68,1.68,0,0,1-1.4.65c-3,0-6,0-8.94,0H9.62a1.12,1.12,0,0,0-1.06.94,1.15,1.15,0,0,0,.73,1.26,1.83,1.83,0,0,0,.62.09h5.3c-.05.08-.06.13-.09.14a7,7,0,0,0-2,2,.51.51,0,0,1-.28.15,1,1,0,0,1-.3,0H9.73a1.15,1.15,0,0,0-1.17,1,1.12,1.12,0,0,0,1.09,1.25c.68,0,1.37,0,2,0a4.12,4.12,0,0,1,.48.05,1.94,1.94,0,0,1,0,.22,5.22,5.22,0,0,0,.05,1.72,6.36,6.36,0,0,0,8.4,4.94A6,6,0,0,0,23,26.91a1.21,1.21,0,0,0,.21-1.36,1.13,1.13,0,0,0-1.18-.6,1.41,1.41,0,0,0-.77.43,4,4,0,0,1-6.79-3.11c0-.79,0-.8.79-.8h9.8c.15,0,.3,0,.45,0a1.14,1.14,0,0,0,1.07-.84,1.17,1.17,0,0,0-.51-1.27,1.36,1.36,0,0,0-.79-.18H16.55a2.34,2.34,0,0,1-.26,0,.86.86,0,0,1,.36-.31c1.11-.61,2.21-1.21,3.33-1.8a1.35,1.35,0,0,1,.6-.13h4.57c.11,0,.22,0,.33,0a1.16,1.16,0,0,0,1.14-1.08,1.11,1.11,0,0,0-1-1.22,2.12,2.12,0,0,0-.44,0H23.33Z"></path>
  </symbol>

  <symbol id="info" viewBox="0 0 30 30">
    <path d="M16.08,23.05a.89.89,0,0,1-.84-.79A2.72,2.72,0,0,1,15.3,21c.39-1.48.78-2.94,1.19-4.41a7.12,7.12,0,0,0,.28-2.47,2.15,2.15,0,0,0-.92-1.63,3.61,3.61,0,0,0-2.59-.58,13.62,13.62,0,0,0-3.17,1l-.25,1,.52-.17A3.11,3.11,0,0,1,12,13.63a.85.85,0,0,1,.68.69,3,3,0,0,1-.05,1.37c-.19.8-.41,1.59-.62,2.39A19.76,19.76,0,0,0,11.12,22a2.44,2.44,0,0,0,1.46,2.52,4.63,4.63,0,0,0,2.55.25,14.76,14.76,0,0,0,2.78-.94c.08-.28.17-.69.25-1l-.48.16A3.22,3.22,0,0,1,16.08,23.05Z"></path>
    <circle cx="15.87" cy="7.48" r="2.29"></circle>
  </symbol>

  <symbol id="instagram" viewBox="0 0 36 36">
    <path d="M23.44,11.25a1.21,1.21,0,1,0,1.23,1.19A1.23,1.23,0,0,0,23.44,11.25Z"></path>
    <path d="M28.18,14A9.84,9.84,0,0,0,28,12.11a5.19,5.19,0,0,0-3.69-4,7.76,7.76,0,0,0-2-.33c-1.15,0-2.29-.07-3.44-.07-1.6,0-3.2,0-4.8.07A10.71,10.71,0,0,0,12.13,8a5.19,5.19,0,0,0-4.06,3.71,7.53,7.53,0,0,0-.32,2c0,1.42-.06,2.85-.09,4.3s0,2.64.09,4A10.82,10.82,0,0,0,8,23.82a5.19,5.19,0,0,0,2.88,3.71,6.83,6.83,0,0,0,2.85.65c1.14,0,2.29.07,3.43.06,1.61,0,3.23,0,4.84-.06A9.75,9.75,0,0,0,23.83,28a5.2,5.2,0,0,0,4-3.7,7.68,7.68,0,0,0,.33-2c0-1,.07-2,.06-3.05C28.24,17.47,28.22,15.72,28.18,14Zm-1.73,6.55a15.54,15.54,0,0,1-.18,2.72,3.63,3.63,0,0,1-3.46,3.08c-1.6.17-3.2.13-4.8.14-.91,0-1.82,0-2.73,0a15.26,15.26,0,0,1-2.62-.19,3.6,3.6,0,0,1-2.38-1.47A3.93,3.93,0,0,1,9.6,22.9c-.07-.79-.12-1.59-.13-2.38,0-1.71,0-3.41,0-5.12a14.19,14.19,0,0,1,.19-2.76,3.59,3.59,0,0,1,1.48-2.37,3.77,3.77,0,0,1,1.93-.67c1.25-.07,2.5-.1,3.75-.14.37,0,.75,0,1.12,0h0c.9,0,1.8,0,2.7,0a16.49,16.49,0,0,1,2.62.18,3.68,3.68,0,0,1,2.38,1.47,3.85,3.85,0,0,1,.67,1.9c.08.82.12,1.65.13,2.48C26.47,17.18,26.48,18.85,26.45,20.53Z"></path>
    <path d="M18,12.71A5.26,5.26,0,1,0,23.22,18,5.25,5.25,0,0,0,18,12.71Zm0,8.72A3.47,3.47,0,1,1,21.43,18,3.5,3.5,0,0,1,18,21.43Z"></path>
  </symbol>

  <symbol id="search" viewBox="0 0 36 36">
    <path d="M25.8,24.22l-2.88-2.84a7.31,7.31,0,1,0-12-.26,7.09,7.09,0,0,0,4.12,3,7.29,7.29,0,0,0,6.33-1.18c.11.14.21.29.33.42l2.56,2.56a1.09,1.09,0,0,0,1.25.25,1.05,1.05,0,0,0,.67-1A1.2,1.2,0,0,0,25.8,24.22ZM17,22.12a5.06,5.06,0,1,1,5.05-5.07A5.07,5.07,0,0,1,17,22.12Z"></path>
  </symbol>

  <symbol id="zloty" viewBox="0 0 36 36">
    <path d="M12.42,23.5a3,3,0,0,1,.19-.33l6.32-8.4a1.73,1.73,0,0,0,.36-.86,1.34,1.34,0,0,0-1-1.38,5.56,5.56,0,0,0-.81-.08H9.8a1.42,1.42,0,0,0-1.46,1.24,1.36,1.36,0,0,0,1,1.4,5.43,5.43,0,0,0,.81.09h4.62l.45,0a3.28,3.28,0,0,1-.18.31L8.7,23.91a1.69,1.69,0,0,0-.36.86,1.36,1.36,0,0,0,1,1.38,5.56,5.56,0,0,0,.81.08h7.68A1.44,1.44,0,0,0,19.29,25a1.38,1.38,0,0,0-1-1.4,4.45,4.45,0,0,0-.81-.08c-1.51,0-3,0-4.53,0Z"></path>
    <path d="M24.85,18.78c.62-.31,1.21-.59,1.77-.9a2.23,2.23,0,0,0,.65-.49,1.18,1.18,0,0,0,.22-1.28,1.24,1.24,0,0,0-.92-.82,1.44,1.44,0,0,0-1,.14c-.2.1-.39.21-.68.39V8.39A1.43,1.43,0,0,0,23.61,7,1.35,1.35,0,0,0,22.2,8a4.36,4.36,0,0,0-.08.81c0,2.62,0,5.23,0,7.85v.51c-.62.31-1.2.59-1.77.9a3.38,3.38,0,0,0-.62.45,1.21,1.21,0,0,0-.19,1.5,1.27,1.27,0,0,0,1.45.65,3.86,3.86,0,0,0,.64-.25l.49-.21v.54c0,1.3,0,2.59,0,3.89a1.47,1.47,0,0,0,1.25,1.59,1.37,1.37,0,0,0,1.41-1,5.55,5.55,0,0,0,.07-.82c0-1.69,0-3.39,0-5.09Z"></path>
  </symbol>
</svg>
