<svg xmlns="http://www.w3.org/2000/svg">
  <symbol id="arrow" viewBox="0 0 24 24">
    <polygon points="12 14.29 4.78 7.07 3.36 8.48 12 17.12 20.64 8.48 19.22 7.07 12 14.29"></polygon>
  </symbol>

  <symbol id="dollar" viewBox="0 0 36 36">
    <path d="M16.64,9.79l-.39.12a6.07,6.07,0,0,0-2.07.9,4.29,4.29,0,0,0-1.91,4.07,3.78,3.78,0,0,0,1.1,2.36,6.86,6.86,0,0,0,1.78,1.22,22.86,22.86,0,0,0,2.25.89,6.54,6.54,0,0,1,1.56.79,1.76,1.76,0,0,1,.76,1.21,1.46,1.46,0,0,1-1,1.52,4.23,4.23,0,0,1-2,.25A11.88,11.88,0,0,1,15,22.86c-.36-.1-.72-.21-1.07-.34a1.09,1.09,0,0,0-1.4.8c-.07.26-.12.53-.2.78a1.1,1.1,0,0,0,.72,1.34,11.89,11.89,0,0,0,2.69.6c.26,0,.51.06.79.1,0,.14,0,.27,0,.39V28c0,.4.19.58.58.58h1.3c.39,0,.56-.18.57-.58V26.35c0-.12,0-.25,0-.39l.28-.08a6.49,6.49,0,0,0,2.46-1.05,4.54,4.54,0,0,0,1.77-2.58,6.23,6.23,0,0,0,.1-1.67,3.59,3.59,0,0,0-.51-1.69,4.76,4.76,0,0,0-2-1.83c-1-.54-2.06-.89-3.1-1.33A5.3,5.3,0,0,1,16.69,15a1.25,1.25,0,0,1,.08-2.06,2.7,2.7,0,0,1,1.43-.41,7.7,7.7,0,0,1,2.19.23c.27.07.54.16.81.22a1,1,0,0,0,1.27-.7c.09-.25.15-.52.22-.78a1.09,1.09,0,0,0-.77-1.37,8,8,0,0,0-2.12-.4c-.21,0-.41-.06-.64-.09,0-.14,0-.26,0-.37,0-.41,0-.82,0-1.23a.61.61,0,0,0-.69-.69H17.29a.59.59,0,0,0-.63.54,2.46,2.46,0,0,0,0,.28V9.79Z"></path>
  </symbol>

  <symbol id="facebook" viewBox="0 0 36 36">
    <path d="M19.5,23.78V18.91c0-.32,0-.32.33-.32q1.16,0,2.31,0c.23,0,.29-.07.31-.29.09-1,.2-2,.31-3,0-.32,0-.32-.29-.32H19.84c-.34,0-.34,0-.34-.33V12.82c0-.76.32-1.08,1.09-1.09h1.75c.39,0,.4,0,.4-.41V8.59c0-.39,0-.39-.38-.39-.89,0-1.78,0-2.67,0a7.24,7.24,0,0,0-1.46.15,3.76,3.76,0,0,0-3,3.58c-.08.9-.05,1.82-.06,2.73,0,.23-.08.3-.3.3H13.38c-.17,0-.25,0-.25.23,0,1.07,0,2.13,0,3.19,0,.2.09.23.25.23.47,0,.94,0,1.41,0s.4,0,.4.39v9.61c0,.4,0,.4.41.4h3.54c.36,0,.36,0,.36-.37Z"></path>
  </symbol>

  <symbol id="hryvnya" viewBox="0 0 36 36">
    <path d="M22.88,14.52l.16-.46a4.69,4.69,0,0,0,.26-2.82,4.88,4.88,0,0,0-6.75-3.49A4.71,4.71,0,0,0,14.82,9a1.09,1.09,0,0,0-.14,1.26,1.06,1.06,0,0,0,1,.61,1.25,1.25,0,0,0,.92-.43A2.48,2.48,0,0,1,18.9,9.7a2.45,2.45,0,0,1,2,1.66,2.45,2.45,0,0,1-.49,2.58,1.68,1.68,0,0,1-1.4.65c-3,0-6,0-8.94,0H9.62a1.12,1.12,0,0,0-1.06.94,1.15,1.15,0,0,0,.73,1.26,1.83,1.83,0,0,0,.62.09h5.3c-.05.08-.06.13-.09.14a7,7,0,0,0-2,2,.51.51,0,0,1-.28.15,1,1,0,0,1-.3,0H9.73a1.15,1.15,0,0,0-1.17,1,1.12,1.12,0,0,0,1.09,1.25c.68,0,1.37,0,2,0a4.12,4.12,0,0,1,.48.05,1.94,1.94,0,0,1,0,.22,5.22,5.22,0,0,0,.05,1.72,6.36,6.36,0,0,0,8.4,4.94A6,6,0,0,0,23,26.91a1.21,1.21,0,0,0,.21-1.36,1.13,1.13,0,0,0-1.18-.6,1.41,1.41,0,0,0-.77.43,4,4,0,0,1-6.79-3.11c0-.79,0-.8.79-.8h9.8c.15,0,.3,0,.45,0a1.14,1.14,0,0,0,1.07-.84,1.17,1.17,0,0,0-.51-1.27,1.36,1.36,0,0,0-.79-.18H16.55a2.34,2.34,0,0,1-.26,0,.86.86,0,0,1,.36-.31c1.11-.61,2.21-1.21,3.33-1.8a1.35,1.35,0,0,1,.6-.13h4.57c.11,0,.22,0,.33,0a1.16,1.16,0,0,0,1.14-1.08,1.11,1.11,0,0,0-1-1.22,2.12,2.12,0,0,0-.44,0H23.33Z"></path>
  </symbol>

  <symbol id="instagram" viewBox="0 0 36 36">
    <path d="M23.44,11.25a1.21,1.21,0,1,0,1.23,1.19A1.23,1.23,0,0,0,23.44,11.25Z"></path>
    <path d="M28.18,14A9.84,9.84,0,0,0,28,12.11a5.19,5.19,0,0,0-3.69-4,7.76,7.76,0,0,0-2-.33c-1.15,0-2.29-.07-3.44-.07-1.6,0-3.2,0-4.8.07A10.71,10.71,0,0,0,12.13,8a5.19,5.19,0,0,0-4.06,3.71,7.53,7.53,0,0,0-.32,2c0,1.42-.06,2.85-.09,4.3s0,2.64.09,4A10.82,10.82,0,0,0,8,23.82a5.19,5.19,0,0,0,2.88,3.71,6.83,6.83,0,0,0,2.85.65c1.14,0,2.29.07,3.43.06,1.61,0,3.23,0,4.84-.06A9.75,9.75,0,0,0,23.83,28a5.2,5.2,0,0,0,4-3.7,7.68,7.68,0,0,0,.33-2c0-1,.07-2,.06-3.05C28.24,17.47,28.22,15.72,28.18,14Zm-1.73,6.55a15.54,15.54,0,0,1-.18,2.72,3.63,3.63,0,0,1-3.46,3.08c-1.6.17-3.2.13-4.8.14-.91,0-1.82,0-2.73,0a15.26,15.26,0,0,1-2.62-.19,3.6,3.6,0,0,1-2.38-1.47A3.93,3.93,0,0,1,9.6,22.9c-.07-.79-.12-1.59-.13-2.38,0-1.71,0-3.41,0-5.12a14.19,14.19,0,0,1,.19-2.76,3.59,3.59,0,0,1,1.48-2.37,3.77,3.77,0,0,1,1.93-.67c1.25-.07,2.5-.1,3.75-.14.37,0,.75,0,1.12,0h0c.9,0,1.8,0,2.7,0a16.49,16.49,0,0,1,2.62.18,3.68,3.68,0,0,1,2.38,1.47,3.85,3.85,0,0,1,.67,1.9c.08.82.12,1.65.13,2.48C26.47,17.18,26.48,18.85,26.45,20.53Z"></path>
    <path d="M18,12.71A5.26,5.26,0,1,0,23.22,18,5.25,5.25,0,0,0,18,12.71Zm0,8.72A3.47,3.47,0,1,1,21.43,18,3.5,3.5,0,0,1,18,21.43Z"></path>
  </symbol>

  <symbol id="search" viewBox="0 0 36 36">
    <path d="M25.8,24.22l-2.88-2.84a7.31,7.31,0,1,0-12-.26,7.09,7.09,0,0,0,4.12,3,7.29,7.29,0,0,0,6.33-1.18c.11.14.21.29.33.42l2.56,2.56a1.09,1.09,0,0,0,1.25.25,1.05,1.05,0,0,0,.67-1A1.2,1.2,0,0,0,25.8,24.22ZM17,22.12a5.06,5.06,0,1,1,5.05-5.07A5.07,5.07,0,0,1,17,22.12Z"></path>
  </symbol>

  <symbol id="zloty" viewBox="0 0 36 36">
    <path d="M12.42,23.5a3,3,0,0,1,.19-.33l6.32-8.4a1.73,1.73,0,0,0,.36-.86,1.34,1.34,0,0,0-1-1.38,5.56,5.56,0,0,0-.81-.08H9.8a1.42,1.42,0,0,0-1.46,1.24,1.36,1.36,0,0,0,1,1.4,5.43,5.43,0,0,0,.81.09h4.62l.45,0a3.28,3.28,0,0,1-.18.31L8.7,23.91a1.69,1.69,0,0,0-.36.86,1.36,1.36,0,0,0,1,1.38,5.56,5.56,0,0,0,.81.08h7.68A1.44,1.44,0,0,0,19.29,25a1.38,1.38,0,0,0-1-1.4,4.45,4.45,0,0,0-.81-.08c-1.51,0-3,0-4.53,0Z"></path>
    <path d="M24.85,18.78c.62-.31,1.21-.59,1.77-.9a2.23,2.23,0,0,0,.65-.49,1.18,1.18,0,0,0,.22-1.28,1.24,1.24,0,0,0-.92-.82,1.44,1.44,0,0,0-1,.14c-.2.1-.39.21-.68.39V8.39A1.43,1.43,0,0,0,23.61,7,1.35,1.35,0,0,0,22.2,8a4.36,4.36,0,0,0-.08.81c0,2.62,0,5.23,0,7.85v.51c-.62.31-1.2.59-1.77.9a3.38,3.38,0,0,0-.62.45,1.21,1.21,0,0,0-.19,1.5,1.27,1.27,0,0,0,1.45.65,3.86,3.86,0,0,0,.64-.25l.49-.21v.54c0,1.3,0,2.59,0,3.89a1.47,1.47,0,0,0,1.25,1.59,1.37,1.37,0,0,0,1.41-1,5.55,5.55,0,0,0,.07-.82c0-1.69,0-3.39,0-5.09Z"></path>
  </symbol>
</svg>
